<svg xmlns="http://www.w3.org/2000/svg" xmlns:xlink="http://www.w3.org/1999/xlink" viewBox="0 0 862 256" width="862" height="256">
  <style>
    .dark-blue { fill: #055372; }
    .dark-red { fill: #eb1405; }
    .dark-grey { fill: #2e3436; }
    .white { fill: white; }
  </style>
  <symbol id="common--add" viewBox="0 0 48 48">
    <path d="M44 19.996h-.001L27.995 20l-.003-16a4 4 0 0 0-4-3.999 4 4 0 0 0-4 4.001l.003 16-15.996.003a4 4 0 0 0 .001 8h.001L19.997 28 20 44A4 4 0 0 0 24 48h.001A4 4 0 0 0 28 43.999l-.003-16L44 27.996a4 4 0 0 0-.001-8z"/>
  </symbol>
  <symbol id="common--arrow-left" viewBox="0 0 28 48">
    <path d="M24 48a3.989 3.989 0 01-2.828-1.172l-20-20a4 4 0 010-5.657l20-20a4 4 0 015.657 5.657L9.657 24 26.829 41.17A4 4 0 0124 48z"/>
  </symbol>
  <symbol id="common--arrow-right" viewBox="0 0 28 48">
    <path d="M4 48a4 4 0 01-2.828-6.829L18.343 24 1.172 6.828a4 4 0 015.657-5.657l20 20a4 4 0 010 5.657l-20 20A3.989 3.989 0 014 48z"/>
  </symbol>
  <symbol id="common--close" viewBox="0 0 46 46">
    <path d="M28.657 23L44.83 6.828a4 4 0 0 0-5.657-5.657L23 17.343 6.83 1.17a4 4 0 0 0-5.657 5.657L17.342 23 1.173 39.17a4 4 0 0 0 5.657 5.657L23 28.657l16.172 16.171a4 4 0 0 0 5.657-5.657z"/>
  </symbol>
  <symbol id="common--double-arrow-left" viewBox="0 0 48 48">
    <path d="M23.992 47.996a3.99 3.99 0 01-2.828-1.171l-20-20c-1.552-1.552-1.552-4.106 0-5.657l20-20A3.998 3.998 0 0123.988 0c2.195 0 4 1.806 4 4 0 1.059-.42 2.075-1.167 2.825L9.649 23.996l17.172 17.172a4 4 0 011.172 2.828c0 2.194-1.806 4-4 4h-.001zm20.008 0a3.99 3.99 0 01-2.829-1.171l-20-20c-1.552-1.552-1.552-4.106 0-5.657l20-20A4 4 0 0143.995 0c2.195 0 4.001 1.806 4.001 4a4 4 0 01-1.168 2.825L29.656 23.996l17.172 17.172A4 4 0 0148 43.996c0 2.194-1.806 4-4 4z"/>
  </symbol>
  <symbol id="common--double-arrow-right" viewBox="0 0 48 48">
    <path d="M4 47.996c-2.194 0-4-1.806-4-4a4 4 0 011.172-2.828l17.172-17.172L1.172 6.825A4 4 0 01.004 4c0-2.194 1.806-4 4.001-4a4 4 0 012.824 1.168l20 20c1.552 1.551 1.552 4.105 0 5.657l-20 20A3.99 3.99 0 014 47.996zm20.008 0h-.001c-2.194 0-4-1.806-4-4a4 4 0 011.172-2.828l17.172-17.172L21.179 6.825A4.004 4.004 0 0120.012 4c0-2.194 1.805-4 4-4 1.058 0 2.075.42 2.824 1.168l20 20c1.552 1.551 1.552 4.105 0 5.657l-20 20a3.99 3.99 0 01-2.828 1.171z"/>
  </symbol>
  <symbol id="common--help" viewBox="0 0 28 48">
    <circle cx="14" cy="44" r="4"/>
    <path d="M28 14a14 14 0 0 0-28 0 4 4 0 0 0 8 0 6 6 0 1 1 6 6 4 4 0 0 0-4 4v9a4 4 0 0 0 8 0v-5.59A14.02 14.02 0 0 0 28 14z"/>
  </symbol>
  <symbol id="common--next" viewBox="0 0 48 36">
    <path d="M46.829 15.172l-14-14a4 4 0 0 0-5.658 5.656L34.343 14H4a4 4 0 0 0 0 8h30.343l-7.172 7.172a4 4 0 1 0 5.658 5.656l14-14a4 4 0 0 0 0-5.656z"/>
  </symbol>
  <symbol id="common--selected" viewBox="0 0 48 37">
    <path d="M19 37a3.999 3.999 0 0 1-3-1.354l-15-17a4 4 0 0 1 6-5.293l11.965 13.56L40.97 1.389a4 4 0 0 1 6.06 5.223l-25 29A4 4 0 0 1 19.023 37z"/>
  </symbol>
  <symbol id="group-common" viewBox="0 0 48 432">
    <use xlink:href="#common--add" width="48" height="48"/>
    <use xlink:href="#common--arrow-left" width="48" height="48" y="48"/>
    <use xlink:href="#common--arrow-right" width="48" height="48" y="96"/>
    <use xlink:href="#common--close" width="48" height="48" y="144"/>
    <use xlink:href="#common--double-arrow-left" width="48" height="48" y="192"/>
    <use xlink:href="#common--double-arrow-right" width="48" height="48" y="240"/>
    <use xlink:href="#common--help" width="48" height="48" y="288"/>
    <use xlink:href="#common--next" width="48" height="48" y="336"/>
    <use xlink:href="#common--selected" width="48" height="48" y="384"/>
  </symbol>
  <symbol id="group-common--12" viewBox="0 0 48 108">
    <use xlink:href="#group-common" width="12" height="108" class="dark-blue"/>
    <use xlink:href="#group-common" width="12" height="108" x="12" class="dark-red"/>
    <use xlink:href="#group-common" width="12" height="108" x="24" class="dark-grey"/>
    <use xlink:href="#group-common" width="12" height="108" x="36" class="white"/>
  </symbol>
  <symbol id="group-common--18" viewBox="0 0 54 162">
    <use xlink:href="#group-common" width="18" height="162" class="dark-blue"/>
    <use xlink:href="#group-common" width="18" height="162" x="18" class="dark-red"/>
    <use xlink:href="#group-common" width="18" height="162" x="36" class="white"/>
  </symbol>
  <symbol id="search--search" viewBox="0 0 48 48">
    <path d="M46.829 41.172L38.4 32.744a21.018 21.018 0 1 0-5.657 5.657l8.427 8.427a4 4 0 0 0 5.658-5.656zM8 21a13 13 0 1 1 22.325 9.046c-.05.045-.106.078-.154.126s-.08.104-.125.154A12.992 12.992 0 0 1 8 21z"/>
  </symbol>
  <symbol id="group-search" viewBox="0 0 48 48">
    <use xlink:href="#search--search" width="48" height="48"/>
  </symbol>
  <symbol id="group-search--18" viewBox="0 0 36 18">
    <use xlink:href="#group-search" width="18" height="18" class="dark-blue"/>
    <use xlink:href="#group-search" width="18" height="18" x="18" class="dark-red"/>
  </symbol>
  <symbol id="group-search--26" viewBox="0 0 26 26">
    <use xlink:href="#group-search" width="26" height="26" class="white"/>
  </symbol>
  <symbol id="toggle--down" viewBox="0 0 48 28">
    <path d="M48 4a3.989 3.989 0 0 1-1.172 2.829l-20 20a4 4 0 0 1-5.657 0l-20-20a4 4 0 0 1 5.657-5.657L24 18.343 41.17 1.172A4 4 0 0 1 48 4z"/>
  </symbol>
  <symbol id="toggle--up" viewBox="0 0 48 28">
    <path d="M0 24a3.989 3.989 0 0 1 1.171-2.828l20-20a4 4 0 0 1 5.658 0l20 20a4 4 0 1 1-5.658 5.657L24 9.657 6.829 26.829A4 4 0 0 1 0 24z"/>
  </symbol>
  <symbol id="group-toggle" viewBox="0 0 48 96">
    <use xlink:href="#toggle--down" width="48" height="48"/>
    <use xlink:href="#toggle--up" width="48" height="48" y="48"/>
  </symbol>
  <symbol id="group-toggle--9" viewBox="0 0 36 18">
    <use xlink:href="#group-toggle" width="9" height="18" class="dark-blue"/>
    <use xlink:href="#group-toggle" width="9" height="18" x="9" class="dark-red"/>
    <use xlink:href="#group-toggle" width="9" height="18" x="18" class="dark-grey"/>
    <use xlink:href="#group-toggle" width="9" height="18" x="27" class="white"/>
  </symbol>
  <symbol id="group-toggle--12" viewBox="0 0 12 24">
    <use xlink:href="#group-toggle" width="12" height="24" class="dark-blue"/>
  </symbol>
  <symbol id="group-toggle--18" viewBox="0 0 18 36">
    <use xlink:href="#group-toggle" width="18" height="36" class="white"/>
  </symbol>
  <symbol id="content--infographic" viewBox="0 0 48 48">
    <path d="M10 24H2c-1.1 0-2 .9-2 2v18c0 1.1.9 2 2 2h8c1.1 0 2-.9 2-2V26c0-1.1-.9-2-2-2zM28 13h-7.9c-1.1 0-2 .9-2 2v29c0 1.1.9 2 2 2H28c1.1 0 2-.9 2-2V15c0-1.1-.9-2-2-2zM46 2h-8c-1.1 0-2 .9-2 2v40c0 1.1.9 2 2 2h8c1.1 0 2-.9 2-2V4c0-1.1-.9-2-2-2z"/>
  </symbol>
  <symbol id="content--interactive" viewBox="0 0 48 44.064">
    <path d="M2 8.017h4.317a6.007 6.007 0 0011.334 0H46a2 2 0 000-4H17.651a6.006 6.006 0 00-11.334 0H2a2 2 0 000 4zM11.984 4a2.016 2.016 0 11-2.016 2.017A2.018 2.018 0 0111.984 4zM46 36.049H25.683a6.006 6.006 0 00-11.334 0H2a2 2 0 000 4h12.349a6.007 6.007 0 0011.334 0H46a2 2 0 000-4zm-25.984 4.015a2.016 2.016 0 112.016-2.015 2.018 2.018 0 01-2.016 2.015zM46 20.032h-4.317a6.007 6.007 0 00-11.334 0H2a2 2 0 000 4h28.349a6.006 6.006 0 0011.334 0H46a2 2 0 000-4zm-9.984 4.017a2.016 2.016 0 112.016-2.017 2.018 2.018 0 01-2.016 2.017z"/>
  </symbol>
  <symbol id="content--map" viewBox="0 0 48 48">
    <path d="M24 0C15.2 0 8 7.6 8 17c0 8 11.8 25.6 15.2 30.4.4.6 1.3.6 1.7 0C28.2 42.6 40 25 40 17c0-9.4-7.2-17-16-17zm0 23.9c-4.4 0-8-3.6-8-8s3.6-8 8-8 8 3.6 8 8-3.6 8-8 8z"/>
  </symbol>
  <symbol id="content--report" viewBox="0 0 32 44">
    <path d="M30 0H2a2.006 2.006 0 0 0-2 2v40a2.006 2.006 0 0 0 2 2h19v-7a3.999 3.999 0 0 1 4-4h7V2a2.006 2.006 0 0 0-2-2zm-4.5 28h-19a1.5 1.5 0 0 1 0-3h19a1.5 1.5 0 0 1 0 3zm0-8h-19a1.5 1.5 0 0 1 0-3h19a1.5 1.5 0 0 1 0 3zm0-8h-19a1.5 1.5 0 0 1 0-3h19a1.5 1.5 0 0 1 0 3z"/>
    <path d="M23 37v7l9-9h-7a2.006 2.006 0 0 0-2 2z"/>
  </symbol>
  <symbol id="group-content" viewBox="0 0 48 192">
    <use xlink:href="#content--infographic" width="48" height="48"/>
    <use xlink:href="#content--interactive" width="48" height="48" y="48"/>
    <use xlink:href="#content--map" width="48" height="48" y="96"/>
    <use xlink:href="#content--report" width="48" height="48" y="144"/>
  </symbol>
  <symbol id="group-content--16" viewBox="0 0 16 64">
    <use xlink:href="#group-content" width="16" height="64" class="dark-grey"/>
  </symbol>
  <symbol id="ai--avatar" viewBox="0 0 64 64">
    <defs>
      <linearGradient id="a" x1="54" x2="54" y1="32.2" y2="21.3" gradientUnits="userSpaceOnUse">
        <stop offset="0" stop-color="#2e3436"/>
        <stop offset="1" stop-color="#e6ecef"/>
      </linearGradient>
      <linearGradient id="b" x1="32" x2="32" y1="50.4" y2="37.5" gradientUnits="userSpaceOnUse">
        <stop offset="0" stop-color="#eb1405"/>
        <stop offset="1" stop-color="#e6ecef"/>
      </linearGradient>
    </defs>
    <circle cx="32" cy="32" r="32"/>
    <path fill="url(#a)" d="M56.9 16.7a3 3 0 0 0-5.7-1 3 3 0 0 0 1.8 3.8v12c0 .6.5 1 1 1s1-.4 1-1v-12a3 3 0 0 0 1.9-2.8Z"/>
    <path fill="#0988bb" d="M11 28.2c-2.1 0-4 1.8-4 4.2v1c0 2.7 2.2 4.7 4.7 4.2 1.8-.4 3-2.2 3-4.1v-1c0-2.4-1.7-4.3-3.8-4.3Zm42 0c-2 0-3.8 1.9-3.8 4.2v1c0 2.4 1.7 4.3 3.8 4.3s3.7-2 3.9-4.3v-1c0-2.3-1.8-4.2-3.9-4.2Z"/>
    <path fill="#e6ecef" d="M19.6 30.8c0-2.6-.3-3.1-.3-3.6 0-.6 2.2-.8 2.9-.8.8 0 .8 1 1 1.6.5-1 1.3-2 2.8-2 1.3 0 1.5 1 1.5 1.4 0 .5-.3 2.2-.8 2.2l-1.2-.2c-1.1 0-1.8.7-2.1 1.3v8.1c0 .5-.5.8-1.6.8h-.7c-1 0-1.5-.3-1.5-.8v-8Zm8.6-3.5v-.4c0-.7 2.1-.6 2.1-.6.7 0 1.4.1 1.5.5l2 7.8 2-7.8c0-.4.5-.6 1.3-.6h.6c.7 0 1.3.2 1.4.6l1.9 7.8 2-7.8c.2-.4.6-.6 1.4-.6h.2c1 0 1.5.3 1.5.7v.4L43 39c-.1.3-.7.5-1.4.5h-1.3c-.8 0-1.3-.2-1.4-.5l-1.7-7-1.7 7c0 .4-.7.6-1.4.6h-1.3c-.8 0-1.3-.2-1.4-.5l-3.2-11.8ZM13.3 12.9l.6 1.3c.3.7.8 1.2 1.5 1.5l1.3.5-1.3.5c-.7.3-1.2.8-1.5 1.5l-.6 1.4-.5-1.4c-.3-.7-.8-1.2-1.5-1.5l-1.3-.5 1.3-.5c.7-.3 1.2-.8 1.5-1.5l.5-1.3Zm4.8-2.9.4 1c.2.4.6.8 1 1l1 .4-1 .4c-.4.2-.8.5-1 1l-.4 1-.3-1c-.2-.5-.6-.8-1-1l-1-.4 1-.4c.4-.2.8-.6 1-1l.3-1Zm33.5 38.2.4 1c.2.5.6.8 1 1l1 .4-1 .4c-.4.2-.8.6-1 1l-.4 1-.4-1c-.2-.4-.5-.8-1-1l-1-.4 1-.4c.5-.2.8-.5 1-1l.4-1Z"/>
    <path fill="url(#b)" d="M41 18.6H23c-6 0-11 5.1-11 11.3v5.6c0 5 3.1 9.3 7.6 10.8-1 0-2 .7-2 1.8s1 2 2 2h24.8c1 0 2-.9 2-2s-1-1.8-2-1.8c4.5-1.5 7.7-5.8 7.7-10.8v-5.6c0-6.2-5-11.3-11.2-11.3Zm7.3 17.6c0 4-3.3 7.3-7.3 7.3H23c-4 0-7.3-3.3-7.3-7.3v-6.5c0-4 3.3-7.3 7.3-7.3h18c4 0 7.3 3.3 7.3 7.3v6.5Z"/>
  </symbol>
  <symbol id="group-ai" viewBox="0 0 48 48">
    <use xlink:href="#ai--avatar" width="48" height="48"/>
  </symbol>
  <symbol id="group-ai--48" viewBox="0 0 48 48">
    <use xlink:href="#group-ai" width="48" height="48" class="dark-grey"/>
  </symbol>
  <symbol id="datepicker--datepicker" viewBox="0 0 42 48">
    <path d="M40 6h-5v2.5c0 1.92-1.58 3.5-3.5 3.5S28 10.42 28 8.5V6H15v2.5c0 1.92-1.58 3.5-3.5 3.5S8 10.42 8 8.5V6H1.993C.9 6 0 6.9 0 7.993V46.007C0 47.1.9 48 1.993 48H40.007C41.1 48 42 47.1 42 46.007V7.993C42 6.9 41.1 6 40.007 6H40Zm-2 38H4V18h34v26Z"/>
    <path d="M11.498 10h.004C12.324 10 13 9.324 13 8.502V1.5c0-.823-.677-1.5-1.5-1.5S10 .677 10 1.5v7.002c0 .822.676 1.498 1.498 1.498Zm20 0h.004C32.324 10 33 9.324 33 8.502V1.5c0-.823-.677-1.5-1.5-1.5S30 .677 30 1.5v7.002c0 .822.676 1.498 1.498 1.498Z"/>
    <path d="M6 20h6v6H6zM14 20h6v6h-6zM22 20h6v6h-6zM30 20h6v6h-6zM6 28h6v6H6zM14 28h6v6h-6zM22 28h6v6h-6zM30 28h6v6h-6zM6 36h6v6H6zM14 36h6v6h-6zM22 36h6v6h-6zM30 36h6v6h-6z"/>
  </symbol>
  <symbol id="group-datepicker" viewBox="0 0 48 48">
    <use xlink:href="#datepicker--datepicker" width="48" height="48"/>
  </symbol>
  <symbol id="group-datepicker--32" viewBox="0 0 64 32">
    <use xlink:href="#group-datepicker" width="32" height="32" class="dark-blue"/>
    <use xlink:href="#group-datepicker" width="32" height="32" x="32" class="dark-red"/>
  </symbol>
  <symbol id="chat--chat" viewBox="0 0 44 36">
    <path d="M36 0H8a8 8 0 0 0-8 8v12a8 8 0 0 0 8 8h16l7.8 7.8c.4.5 1.2.1 1.2-.5V28h3a8 8 0 0 0 8-8V8a8 8 0 0 0-8-8Zm-9.8 13.6 1.4-1.4c.2-.3.6-.3.8 0l1.4 1.4c.3.2.3.6 0 .8l-1.4 1.4c-.2.3-.6.3-.8 0l-1.4-1.4a.6.6 0 0 1 0-.8Zm13.2 7.3-2.1.8a1 1 0 0 0-.6.6l-.8 2a1 1 0 0 1-1.8 0l-.8-2a1 1 0 0 0-.6-.6l-2-.8c-1-.3-1-1.5 0-1.8l2-.8c.3 0 .5-.3.6-.6l.8-2a1 1 0 0 1 1.8 0l.8 2c0 .3.3.5.6.6l2 .8c1 .3 1 1.5 0 1.8Z"/>
  </symbol>
  <symbol id="chat--copy" viewBox="0 0 34 48">
    <path d="M27.78 41a.781.781 0 0 0-.78.78V48l7-7h-6.22zM25 10V1a1.003 1.003 0 0 0-1-1H1a1.003 1.003 0 0 0-1 1v33a1.003 1.003 0 0 0 1 1h5V14a3.999 3.999 0 0 1 4-4z"/>
    <path d="M33 13H10a1.003 1.003 0 0 0-1 1v33a1.003 1.003 0 0 0 1 1h15v-6.22A2.787 2.787 0 0 1 27.78 39H34V14a1.003 1.003 0 0 0-1-1zm-4 22H14a1 1 0 0 1 0-2h15a1 1 0 0 1 0 2zm0-6H14a1 1 0 0 1 0-2h15a1 1 0 0 1 0 2zm0-6H14a1 1 0 0 1 0-2h15a1 1 0 0 1 0 2z"/>
  </symbol>
  <symbol id="chat--thumbs-down" viewBox="0 0 48 41.996">
    <path d="M43 20h.798c2.109 0 4.007 1.54 4.187 3.642a4.002 4.002 0 0 1-3.986 4.355H27.996c1.058 2.99 1.763 6.06 1.982 9.141.428 4.895-6.306 6.81-8.485 2.34-1.743-3.698-4.078-6.815-6.929-9.39a33.408 33.408 0 0 0-2.024-1.676c-.35-.27-.781-.415-1.223-.415H.5a.5.5 0 0 1-.5-.5V3.507a.5.5 0 0 1 .5-.5l6.321-.01.35-.064L14.914.032 15.091 0h22.744c1.48 0 2.86.995 3.115 2.453A3.008 3.008 0 0 1 38 6h2.295c1.383 0 2.72.715 3.338 1.952C44.918 10.52 42.431 13 40 13h3.28c1.405 0 2.775.722 3.382 1.989C47.883 17.539 45.417 20 43 20Z"/>
  </symbol>
  <symbol id="chat--thumbs-up" viewBox="0 0 48 41.996">
    <path d="M43 21.996h.798c2.109 0 4.007-1.54 4.187-3.641a4.002 4.002 0 0 0-3.986-4.356H27.996c1.058-2.99 1.763-6.06 1.982-9.141.428-4.895-6.306-6.81-8.485-2.34-1.743 3.698-4.078 6.815-6.929 9.39a33.408 33.408 0 0 1-2.024 1.676c-.35.27-.781.415-1.223.415H.5a.5.5 0 0 0-.5.5v23.99a.5.5 0 0 0 .5.5l6.321.01.35.064 7.744 2.901.176.032h22.744c1.48 0 2.86-.995 3.115-2.452A3.008 3.008 0 0 0 38 35.996h2.295c1.383 0 2.72-.715 3.338-1.952 1.284-2.567-1.203-5.048-3.634-5.048h3.28c1.405 0 2.775-.722 3.382-1.989 1.221-2.55-1.245-5.01-3.662-5.01Z"/>
  </symbol>
  <symbol id="group-chat" viewBox="0 0 48 192">
    <use xlink:href="#chat--chat" width="48" height="48"/>
    <use xlink:href="#chat--copy" width="48" height="48" y="48"/>
    <use xlink:href="#chat--thumbs-down" width="48" height="48" y="96"/>
    <use xlink:href="#chat--thumbs-up" width="48" height="48" y="144"/>
  </symbol>
  <symbol id="group-chat--16" viewBox="0 0 48 64">
    <use xlink:href="#group-chat" width="16" height="64" class="dark-blue"/>
    <use xlink:href="#group-chat" width="16" height="64" x="16" class="dark-red"/>
    <use xlink:href="#group-chat" width="16" height="64" x="32" class="dark-grey"/>
  </symbol>
  <symbol id="group-chat--40" viewBox="0 0 120 160">
    <use xlink:href="#group-chat" width="40" height="160" class="dark-blue"/>
    <use xlink:href="#group-chat" width="40" height="160" x="40" class="dark-red"/>
    <use xlink:href="#group-chat" width="40" height="160" x="80" class="dark-grey"/>
  </symbol>
  <symbol id="group-chat--48" viewBox="0 0 144 192">
    <use xlink:href="#group-chat" width="48" height="192" class="dark-blue"/>
    <use xlink:href="#group-chat" width="48" height="192" x="48" class="dark-red"/>
    <use xlink:href="#group-chat" width="48" height="192" x="96" class="dark-grey"/>
  </symbol>
  <symbol id="group-chat--64" viewBox="0 0 192 256">
    <use xlink:href="#group-chat" width="64" height="256" class="dark-blue"/>
    <use xlink:href="#group-chat" width="64" height="256" x="64" class="dark-red"/>
    <use xlink:href="#group-chat" width="64" height="256" x="128" class="dark-grey"/>
  </symbol>
  <use xlink:href="#group-common--12" width="48" height="108"/>
  <use xlink:href="#group-common--18" width="54" height="162" x="48"/>
  <use xlink:href="#group-search--18" width="36" height="18" x="102"/>
  <use xlink:href="#group-search--26" width="26" height="26" x="138"/>
  <use xlink:href="#group-toggle--9" width="36" height="18" x="164"/>
  <use xlink:href="#group-toggle--12" width="12" height="24" x="200"/>
  <use xlink:href="#group-toggle--18" width="18" height="36" x="212"/>
  <use xlink:href="#group-content--16" width="16" height="64" x="230"/>
  <use xlink:href="#group-ai--48" width="48" height="48" x="246"/>
  <use xlink:href="#group-datepicker--32" width="64" height="32" x="294"/>
  <use xlink:href="#group-chat--16" width="48" height="64" x="358"/>
  <use xlink:href="#group-chat--40" width="120" height="160" x="406"/>
  <use xlink:href="#group-chat--48" width="144" height="192" x="526"/>
  <use xlink:href="#group-chat--64" width="192" height="256" x="670"/>
</svg>